<svg xmlns="http://www.w3.org/2000/svg" xmlns:xlink="http://www.w3.org/1999/xlink" viewBox="144.48 170.47 220.39 177.85"><path fill="#E87C50" transform="matrix(0.5 0 0 0.5 6.10352e-05 0)" d="M681.913 462.911L682.585 463.435C687.3 473.619 690.544 496.561 691.242 508.009C694.279 555.258 678.166 601.74 646.538 636.973C615.125 672.262 570.969 693.612 523.801 696.318C475.588 699.274 428.237 682.546 392.581 649.959C358.49 619.267 337.823 576.41 335.033 530.624C333.914 513.45 334.954 494.623 339.086 477.859C341.401 479.176 343.731 480.218 346.092 481.414C358.597 487.746 370.915 494.303 383.575 500.334C382.973 519.821 381.009 527.113 385.873 548.228C393.777 581.981 414.781 611.205 444.254 629.456C473.934 647.623 509.585 653.339 543.456 645.361C577.564 636.984 606.926 615.354 625.037 585.262C643.276 555.353 647.39 520.292 639.185 486.525C653.342 478.491 667.759 470.921 681.913 462.911Z"/><path fill="#E87C50" transform="matrix(0.5 0 0 0.5 6.10352e-05 0)" d="M706.635 402.707C713.545 402.488 722.66 402.995 729.725 403.194C719.652 405.521 709.671 408.23 699.804 411.314C612.128 438.549 539.07 499.865 497.041 581.489C492.003 572.967 486.584 563.673 480.877 555.617C449.908 511.896 412.969 480.798 365.797 456.169C342.399 443.497 314.664 433.934 288.952 427.282C359.278 421.855 442.506 449.598 493.506 498.721C503.449 488.472 509.446 481.056 520.695 471.359C577.343 422.527 633.643 406.033 706.635 402.707Z"/><path fill="#E87C50" transform="matrix(0.5 0 0 0.5 6.10352e-05 0)" d="M504.771 341.217C521.03 340.085 540.962 342.687 556.67 346.446C550.914 361.372 545.667 377.555 540.297 392.762C532.435 390.541 523.89 389.47 515.735 389.278C481.601 388.187 448.439 400.739 423.581 424.158L420.16 427.594C403.021 421.246 387.615 415.478 369.662 411.81C372.209 408.149 376.13 403.57 379.172 400.212C411.463 364.54 456.7 343.292 504.771 341.217Z"/></svg>