<svg xmlns="http://www.w3.org/2000/svg" xmlns:xlink="http://www.w3.org/1999/xlink" viewBox="72.04 207.94 366.61 80.9"><path fill="#EE714C" transform="matrix(0.5 0 0 0.5 0 1.52588e-05)" d="M297.355 461.495L298.576 462.232C300.374 465.334 300.974 468.276 301.536 471.781C304.575 490.007 300.104 508.688 289.141 523.562C278.512 538.439 262.382 548.453 244.334 551.38C225.564 554.165 206.453 549.423 191.162 538.186C176.028 527.216 165.954 510.61 163.216 492.12C162.152 487.532 162.473 474.985 163.063 470.47C168.571 472.718 176.469 475.042 182.436 477.217C182.384 482.791 182.554 488.392 183.718 493.863C186.414 506.565 194.164 517.624 205.185 524.492C244.266 549.251 292.17 515.739 280.864 469.178C285.887 467.105 292.319 463.857 297.355 461.495Z"/><path fill="#293447" transform="matrix(0.5 0 0 0.5 0 1.52588e-05)" d="M365.387 444.681C382.614 444.079 395.455 453.856 397.218 471.354C399.355 492.56 394.366 510.475 370.126 513.318C363.514 513.884 355.486 511.773 349.817 508.07C335.06 498.43 335.029 468.764 344.45 455.397C349.31 448.502 357.283 445.857 365.387 444.681ZM368.62 502.864C372.993 502.196 377.142 500.644 379.709 496.81C386.194 487.121 386.392 465.825 376.305 458.374C373.387 456.218 370.224 455.844 366.814 455.65C362.153 456.615 357.945 458.205 355.348 462.461C349.466 472.099 349.003 493.436 359.397 500.373C362.225 502.26 365.396 502.679 368.62 502.864Z"/><path fill="#EE714C" transform="matrix(0.5 0 0 0.5 0 1.52588e-05)" d="M309.865 437.785C313.886 437.35 317.229 437.551 321.221 437.904C319.159 438.408 316.981 438.736 314.87 439.193C288.891 444.813 263.57 459.622 246.008 479.57C238.403 488.208 232.459 497.912 226.236 507.456C212.102 485.702 199.694 475.773 177.058 463.53C164.243 457.268 157.874 456.097 144.087 453.259C174.068 450.848 199.986 457.073 224.351 474.748C244.305 447.432 277.669 438.789 309.865 437.785Z"/><path fill="#EE714C" transform="matrix(0.5 0 0 0.5 0 1.52588e-05)" d="M750.69 462.687C752.896 462.47 756.602 462.985 758.741 463.395C779.861 467.444 781.921 501.82 763.717 510.845C760.228 512.574 757.847 512.94 754.109 513.431C740.251 513.825 729.871 506.035 728.615 491.806C727.2 475.779 733.716 464.339 750.69 462.687ZM753.807 503.775C757.477 501.974 761.054 499.129 762.094 495.078C764.652 485.107 763.316 474.253 751.765 472.568C741.359 475.582 739.975 485.764 742.637 495.254C744.208 500.857 748.308 503.032 753.807 503.775Z"/><path fill="#EE714C" transform="matrix(0.5 0 0 0.5 0 1.52588e-05)" d="M844.378 442.279L844.871 442.572C845.705 448.964 845.426 479.437 844.26 485.489C849.021 478.516 855.628 470.245 861.486 464.337C866.141 463.915 871.342 464.036 876.055 464.032L857.663 486.287C864.084 493.332 870.508 503.776 877.243 511.117L877.31 511.651C874.925 513.046 866.127 512.374 863.158 512.048C857.791 506.109 848.941 494.573 844.545 487.917C845.08 495.907 845.009 504.408 845.076 512.456C840.793 512.405 836.511 512.407 832.229 512.461C830.922 488.676 832.787 466.181 832.006 442.394C836.074 442.519 840.297 442.365 844.378 442.279Z"/><path fill="#293447" transform="matrix(0.5 0 0 0.5 0 1.52588e-05)" d="M535.454 442.447L547.609 442.341L547.923 468.459C552.729 464.714 555.017 463.246 561.225 462.756C580.657 461.222 578.677 478.968 578.628 492.464C578.603 499.072 578.589 505.621 578.565 512.045L566.453 512.088L566.52 490.75C566.686 474.958 562.967 467.449 547.588 477.958L547.574 512.044L535.46 512.089L535.454 442.447Z"/><path fill="#EE714C" transform="matrix(0.5 0 0 0.5 0 1.52588e-05)" d="M310.75 524.643C308.342 530.484 305.347 536.065 301.812 541.3C289.094 559.764 269.548 572.404 247.492 576.427C225.726 580.255 203.332 575.234 185.283 562.479C169.711 551.561 155.385 531.678 152.032 512.963C160.709 530.873 171.17 543.173 188.411 553.762C207.837 565.812 231.301 569.52 253.497 564.05C278.506 557.983 296.128 543.73 309.3 522.054L310.75 524.643Z"/><path fill="#293447" transform="matrix(0.5 0 0 0.5 0 1.52588e-05)" d="M608.421 462.571C608.922 462.548 609.422 462.528 609.923 462.511C631.143 461.781 633.456 473.939 634.06 491.563C623.991 491.405 611.391 490.647 601.615 491.56C601.779 492.164 601.956 492.764 602.145 493.36C606.522 507.366 618.13 504.369 628.822 500.389C630.501 502.741 631.555 506.017 632.489 508.738C622.386 513.345 612.155 515.933 601.45 510.648C585.615 502.83 585.018 475.116 599.69 465.91C602.485 464.156 605.251 463.436 608.421 462.571ZM601.785 483.042L615.202 483.153L622.321 483.43C621.02 474.642 619.872 471.398 610.043 472.046C604.718 474.624 603.944 475.677 602.285 481.368L601.785 483.042Z"/><path fill="#EE714C" transform="matrix(0.5 0 0 0.5 0 1.52588e-05)" d="M671.805 444.723C680.934 444.941 685.337 446.246 692.99 451.32C691.484 454.211 689.433 457.354 687.692 460.159C684.618 458.509 681.449 457.357 678.034 456.499C648.651 449.114 648.093 507.446 676.731 502.552C680.866 501.846 685.118 499.3 689.209 498.567L690.887 500.282C692.143 502.487 693.42 504.682 694.716 506.864C670.163 521.984 643.871 511.873 642.549 481.523C641.667 461.284 649.444 445.771 671.805 444.723Z"/><path fill="#EE714C" transform="matrix(0.5 0 0 0.5 0 1.52588e-05)" d="M226.807 416.212C234.096 415.134 244.438 416.868 251.493 418.846C249.196 424.219 245.37 430.91 242.516 436.027C224.579 433.649 214.123 435.558 200.619 447.897C198.944 449.656 197.986 450.95 196.554 452.882C190.566 449.349 183.666 446.748 177.016 444.772C178.5 442.603 180.083 440.503 181.761 438.479C193.632 424.271 208.712 417.748 226.807 416.212Z"/><path fill="#293447" transform="matrix(0.5 0 0 0.5 0 1.52588e-05)" d="M475.979 446.058C491.207 446.358 511.605 446.925 526.583 446.072L526.522 456.554C520.074 456.398 513.836 456.497 507.388 456.594C507.529 469.08 507.208 482.009 507.108 494.556C507.091 499.847 506.869 506.949 507.357 512.081L494.526 512.026C495.172 492.741 494.539 475.297 494.834 456.39C488.286 455.933 482.25 456.343 475.691 456.6C475.567 453.322 475.835 449.389 475.979 446.058Z"/><path fill="#293447" transform="matrix(0.5 0 0 0.5 0 1.52588e-05)" d="M459.645 441.593C464.949 441.495 469.154 442.382 474.373 443.251C473.721 446.183 472.991 449.098 472.184 451.991C471.31 451.878 470.436 451.772 469.56 451.671C458.171 450.379 458.371 453.97 457.485 464.065L470.29 464.005C469.767 467.177 469.28 470.354 468.828 473.536C465.383 473.257 461.511 473.416 458.02 473.476L457.972 504.25L457.927 511.977L445.862 512.084C445.869 499.413 445.556 486.341 445.454 473.624C442.712 473.574 441.044 473.606 438.292 473.816C438.296 470.679 438.434 467.461 438.532 464.318C440.612 464.077 443.341 464.029 445.48 463.929C445.303 450.856 445.424 444.454 459.645 441.593Z"/><path fill="#293447" transform="matrix(0.5 0 0 0.5 0 1.52588e-05)" d="M426.989 441.645C432.368 441.103 435.748 442.206 440.968 443.402L438.504 452.547C426.481 449.544 424.379 452.526 423.885 464.031C428.018 463.945 432.271 463.971 436.416 463.944C435.808 467.038 434.944 470.424 434.219 473.522C431.005 473.418 427.25 473.542 423.992 473.572L423.906 505.375C423.753 507.844 423.754 509.559 423.832 512.034L411.572 512.104C411.528 499.537 411.221 486.014 412.053 473.579L404.537 473.551L404.549 464.335C406.854 464.194 409.31 464.162 411.631 464.09C410.927 450.342 412.578 444.215 426.989 441.645Z"/><path fill="#EE714C" transform="matrix(0.5 0 0 0.5 0 1.52588e-05)" d="M805.636 462.67C812.96 462.404 817.826 463.873 824.206 467.037C822.517 470.132 820.899 473.007 819.472 476.238C809.274 471.319 799.063 471.665 796.601 485.336C795.833 489.598 798.069 497.028 800.799 500.296C806.136 506.683 813.837 500.875 820.158 500.666C820.862 500.653 821.442 502.049 821.957 502.88L824.974 508.857C820.522 510.754 817.255 512.043 812.398 512.961C787.72 517.626 775.507 488.698 789.163 470.816C793.183 465.553 799.089 463.267 805.636 462.67Z"/><path fill="#EE714C" transform="matrix(0.5 0 0 0.5 0 1.52588e-05)" d="M703.27 442.269C705.706 442.473 713.112 442.121 715.828 442.069C715.564 445.423 715.429 448.924 715.507 452.286C715.894 468.748 714.335 485.39 716.229 501.742C724.411 503.483 724.955 503.375 722.857 511.693C709.768 516.732 703.006 509.025 702.92 496.631C702.818 486.281 702.839 475.734 703.002 465.38C703.107 458.682 702.384 448.545 703.27 442.269Z"/><path fill="#FE682E" fill-opacity="0.98039216" transform="matrix(0.5 0 0 0.5 0 1.52588e-05)" d="M309.3 522.054C311.151 518.596 312.972 515.123 314.763 511.634C313.831 515.812 312.473 520.72 310.75 524.643L309.3 522.054Z"/></svg>